<svg width="573" height="702" viewBox="0 0 573 702" fill="none" xmlns="http://www.w3.org/2000/svg">
<path d="M193.783 476.034C168.944 497.124 181.598 535.555 213.467 535.555C233.62 535.555 247.68 521.495 247.68 501.342C247.68 471.816 215.811 456.818 193.783 476.034Z" fill="black"/>
<path fill-rule="evenodd" clip-rule="evenodd" d="M288.569 3.62187C272.271 12.9347 273.047 21.4718 302.926 147.972C367.728 420.374 375.489 457.238 374.325 469.655C374.325 587 292.799 664.02 198 640.003C53.6802 603.44 42.6833 475.087 73.2078 419.986C103.732 364.885 130.68 416.821 174.68 426.94C218.68 437.06 280.63 434.222 308.18 410.94C342.327 382.226 337.926 326.94 302.926 281.94C280.42 258.27 256.546 274 276.053 314.903C289.692 343.5 294.389 358.676 284.688 373.421C262.182 407.569 195.44 402.912 166.337 364.885C157.024 352.856 155.86 347.811 155.86 322.201V293.486L142.667 295.814C107.743 301.247 61.1787 335.782 35.1802 374.586C-20.3092 458.402 -9.44411 561.62 62.7308 633.795C94.1618 665.225 125.205 683.075 167.889 693.94C247.049 714.118 325.432 694.328 378.981 640.003C430.978 587.618 446.888 530.964 430.978 454.133C427.874 437.836 413.905 376.526 399.935 317.932C386.354 259.727 375.101 210.446 375.101 208.118C375.101 200.357 454.26 245.369 475.991 265.935C505.093 292.71 514.794 312.5 514.794 344.707C514.794 365.273 512.466 373.81 500.437 397.868C486.856 425.03 486.468 427.359 491.9 437.06C500.049 451.805 515.182 456.461 527.987 447.925C551.658 432.791 573 366.825 573 309.395C573 200.357 511.69 106.452 396.055 37.7691C339.789 4.39799 305.642 -6.46712 288.569 3.62187ZM495.392 201.909C474.826 165.045 429.038 123.137 375.877 92.0944C341.342 71.9165 341.342 71.9164 347.55 96.3628C349.878 103.735 352.983 116.929 355.311 125.466C358.803 138.659 361.908 142.151 373.937 146.42C400.711 156.121 464.349 189.104 484.527 203.849L504.705 218.207L495.392 201.909Z" fill="black"/>
</svg>
